<svg width="429mm"
   height="88.50695174278368mm"
   viewBox="0 0 378.0719970703125 78"
   version="1.1"
   id="SVGRoot"
   xmlns="http://www.w3.org/2000/svg"
   xmlns:svg="http://www.w3.org/2000/svg"><defs id="SvgjsDefs1015"></defs><g id="SvgjsG1016" featurekey="symbolGroupContainer" transform="matrix(1,0,0,1,0,0)" fill="#111"><rect xmlns="http://www.w3.org/2000/svg" width="103" height="78" rx="10" ry="10"></rect></g><g id="SvgjsG1017" featurekey="symbolFeature-0" transform="matrix(0.4921798139148208,0,0,0.4921798139148208,20.00049014927929,7.695504652129481)" fill="#fff"><path xmlns="http://www.w3.org/2000/svg" d="M74.313 0l-28.094 78h8.469l28.094-78h-8.469zm-36.313 11.25l-2.188 1.406-34 22-1.813 1.156v4.25l1.688 1.219 34 24 2.313 1.594v-9.781l-26.844-18.969 26.844-17.375v-9.5zm52 0v9.5l26.844 17.375-26.844 18.969v9.781l2.313-1.594 34-24 1.688-1.219v-4.25l-1.813-1.156-34-22-2.188-1.406z" transform="translate(0 25)"></path></g><g id="SvgjsG1018" featurekey="nameLeftFeature-0" transform="matrix(1.2,0,0,1.2,120.07199935913086,9)" fill="#111"><path d="M9.64 17 l0.8 23 l-8 0 l0 -30 l12.68 0 l5.72 18.84 l0.28 0 l5.44 -18.84 l13 0 l0 30 l-8 0 l0.8 -23 l-0.28 0 l-7.6 23 l-6.92 0 l-7.68 -23 l-0.24 0 z M52.28 40 l-8 0 l0 -30 l15.08 0 c7.44 0 10.24 3.16 10.24 11 c0 8.44 -1.88 11.32 -10.24 11.32 l-7.08 0 l0 7.68 z M52.28 25.36 l5.48 0 c3.16 -0.12 3.6 -0.48 3.6 -4.36 c0 -3.08 -0.48 -4.04 -3.6 -4.04 l-5.48 0 l0 8.4 z"></path></g><g id="SvgjsG1019" featurekey="nameRightFeature-0" transform="matrix(1.2,0,0,1.2,204.21600036621095,9)" fill="#111"><path d="M10.32 40 l-8 0 l0 -30 l15.08 0 c7.44 0 10.24 3.16 10.24 11 c0 8.44 -1.88 11.32 -10.24 11.32 l-7.08 0 l0 7.68 z M10.32 25.36 l5.48 0 c3.16 -0.12 3.6 -0.48 3.6 -4.36 c0 -3.08 -0.48 -4.04 -3.6 -4.04 l-5.48 0 l0 8.4 z M48.519999999999996 34.84 l-10.76 0 l-1.48 5.16 l-8.32 0 l9 -30 l12.16 0 l9.12 30 l-8.16 0 z M46.92 29 l-3.72 -13 l-0.08 0 l-3.64 13 l7.44 0 z M68.08000000000001 40 l-8 0 l0 -30 l15.08 0 c7.44 0 10.24 3.16 10.24 11 c0 8.44 -1.88 11.32 -10.24 11.32 l-7.08 0 l0 7.68 z M68.08000000000001 25.36 l5.48 0 c3.16 -0.12 3.6 -0.48 3.6 -4.36 c0 -3.08 -0.48 -4.04 -3.6 -4.04 l-5.48 0 l0 8.4 z M106.28 34.84 l-10.76 0 l-1.48 5.16 l-8.32 0 l9 -30 l12.16 0 l9.12 30 l-8.16 0 z M104.68 29 l-3.72 -13 l-0.08 0 l-3.64 13 l7.44 0 z M117.60000000000001 40 l0 -30 l15.2 0 c8.36 0 12.08 3.12 12.08 11.64 l0 6.28 c0 8.2 -2.64 12.08 -11 12.08 l-16.28 0 z M125.60000000000001 16.96 l0 16.08 l7 0 c2.96 0 4.04 -1.96 4.04 -5.12 l0 -6.28 c0 -3.88 -1.24 -4.68 -4.04 -4.68 l-7 0 z"></path></g></svg>